<?xml version="1.0" standalone="no"?>
<!DOCTYPE svg PUBLIC "-//W3C//DTD SVG 20010904//EN"
 "http://www.w3.org/TR/2001/REC-SVG-20010904/DTD/svg10.dtd">
<svg version="1.0" xmlns="http://www.w3.org/2000/svg"
 width="192.000000pt" height="192.000000pt" viewBox="0 0 192.000000 192.000000"
 preserveAspectRatio="xMidYMid meet">

<g transform="translate(0.000000,192.000000) scale(0.100000,-0.100000)"
fill="white" stroke="none">
<path d="M520 1837 c-25 -7 -62 -21 -83 -32 -47 -22 -137 -103 -156 -139 -8
-14 -18 -26 -23 -26 -4 0 -8 41 -8 90 l0 90 -70 0 -70 0 2 -627 3 -628 65 0
65 0 6 415 c5 385 7 420 27 483 11 37 30 83 42 101 30 50 95 105 159 134 48
23 70 27 151 27 83 0 102 -3 145 -26 51 -26 82 -66 107 -139 8 -24 13 -185 17
-515 l6 -480 65 0 65 0 5 420 c6 404 7 423 29 490 26 79 66 136 126 183 65 50
118 65 225 66 110 1 160 -19 205 -78 53 -70 55 -91 55 -585 0 -251 3 -466 6
-478 6 -21 12 -23 70 -23 l64 0 0 458 c0 269 -4 484 -11 522 -21 130 -86 228
-187 277 -54 26 -65 28 -187 28 -109 -1 -139 -4 -183 -22 -72 -29 -146 -88
-189 -150 -20 -29 -40 -53 -44 -53 -4 0 -16 20 -28 45 -31 66 -82 117 -148
150 -51 25 -71 29 -168 32 -70 2 -126 -2 -155 -10z"/>
</g>
</svg>
